<?xml version="1.0" encoding="utf-8"?>
<!-- Generator: Adobe Illustrator 23.0.6, SVG Export Plug-In . SVG Version: 6.00 Build 0)  -->
<svg version="1.1" id="Layer_1" xmlns="http://www.w3.org/2000/svg" xmlns:xlink="http://www.w3.org/1999/xlink" x="0px" y="0px"
	 viewBox="0 0 1288.6 180" style="enable-background:new 0 0 1288.6 180;" xml:space="preserve">
<style type="text/css">
	.st0{fill-rule:evenodd;clip-rule:evenodd;fill:url(#SVGID_1_);}
	.st1{fill-rule:evenodd;clip-rule:evenodd;fill:url(#SVGID_2_);}
	.st2{fill-rule:evenodd;clip-rule:evenodd;fill:url(#SVGID_3_);}
	.st3{fill-rule:evenodd;clip-rule:evenodd;fill:url(#SVGID_4_);}
	.st4{fill-rule:evenodd;clip-rule:evenodd;fill:url(#SVGID_5_);}
	.st5{fill:#FFFFFF;}
	.st6{fill:#BCBEC0;}
	.st7{fill-rule:evenodd;clip-rule:evenodd;fill:#FFFFFF;}
</style>
<linearGradient id="SVGID_1_" gradientUnits="userSpaceOnUse" x1="44.9656" y1="140" x2="44.9656" y2="70">
	<stop  offset="0" style="stop-color:#F27029"/>
	<stop  offset="1" style="stop-color:#FBB216"/>
</linearGradient>
<rect x="33.4" y="70" class="st0" width="23" height="70"/>
<linearGradient id="SVGID_2_" gradientUnits="userSpaceOnUse" x1="80.7544" y1="120" x2="80.7544" y2="40">
	<stop  offset="0" style="stop-color:#F27029"/>
	<stop  offset="1" style="stop-color:#FBB216"/>
</linearGradient>
<rect x="69.4" y="40" class="st1" width="22.7" height="80"/>
<linearGradient id="SVGID_3_" gradientUnits="userSpaceOnUse" x1="152.332" y1="124.9818" x2="152.332" y2="0">
	<stop  offset="0" style="stop-color:#4DA004"/>
	<stop  offset="1" style="stop-color:#84F130"/>
</linearGradient>
<rect x="141" class="st2" width="22.7" height="125"/>
<linearGradient id="SVGID_4_" gradientUnits="userSpaceOnUse" x1="188.1208" y1="100" x2="188.1208" y2="45">
	<stop  offset="0" style="stop-color:#4DA004"/>
	<stop  offset="1" style="stop-color:#84F130"/>
</linearGradient>
<rect x="176.8" y="45" class="st3" width="22.7" height="55"/>
<linearGradient id="SVGID_5_" gradientUnits="userSpaceOnUse" x1="116.5432" y1="145" x2="116.5432" y2="34.791">
	<stop  offset="0" style="stop-color:#0061B3"/>
	<stop  offset="1" style="stop-color:#27AAE1"/>
</linearGradient>
<rect x="105.2" y="34.8" class="st4" width="22.7" height="110.2"/>
<g>
	<path class="st5" d="M253,24.8V114h-28.5V24.8h-47.3V1.8h109.6v23.1H253z"/>
	<path class="st5" d="M353,82.4h-0.8h-21.6V114h-28.5V1.9h50.1c29.6,0,46.6,14.1,46.6,39.1c0,17.1-7.2,29.5-20.3,36l23.5,37h-32.3
		L353,82.4z M352.2,60c12.3,0,19.5-6.2,19.5-18.1c0-11.7-7.2-17.6-19.5-17.6h-21.6V60H352.2z"/>
	<path class="st5" d="M446.7,93.3l-8.2,20.6h-29.3l48.3-112h29.3l47.2,112h-30.4l-8-20.6H446.7z M471.3,30.3L455,71.7h32.3
		L471.3,30.3z"/>
	<path class="st5" d="M595.9,1.9c35.2,0,59.5,22.7,59.5,56c0,33.1-24.6,56-60.7,56h-47.1V1.9H595.9z M576.2,91.2h20.3
		c17.4,0,29.9-13.4,29.9-33.1c0-19.8-13.1-33.5-31.2-33.5h-19V91.2z"/>
	<path class="st5" d="M702.2,24.3v22.3h53.5V69h-53.5v22.6h61V114h-89.5V1.9h87.7v22.4H702.2z"/>
	<path class="st5" d="M997.5,1.9c35.2,0,59.5,22.7,59.5,56c0,33.1-24.6,56-60.7,56h-47.1V1.9H997.5z M977.8,91.2h20.3
		c17.4,0,29.9-13.4,29.9-33.1c0-19.8-13.1-33.5-31.2-33.5h-19V91.2z"/>
	<path class="st5" d="M1097.8,93.3l-8.2,20.6h-29.3l48.3-112h29.3l47.2,112h-30.4l-8-20.6H1097.8z M1122.4,30.3l-16.3,41.5h32.3
		L1122.4,30.3z"/>
	<path class="st5" d="M1247.9,114h-28.3V78.6l-41.5-76.7h28.5l27.1,48.8l26.4-48.8h28.5l-40.7,75.9V114z"/>
</g>
<g>
	<path class="st6" d="M797.7,49.1c-4.1-2.2-7.4-5.2-9.7-9.1c-2.4-3.9-3.5-8.2-3.5-13.1c0-4.8,1.2-9.2,3.5-13.1
		c2.4-3.9,5.6-6.9,9.7-9.1c4.1-2.2,8.8-3.3,13.9-3.3s9.8,1.1,13.9,3.3c4.1,2.2,7.4,5.2,9.7,9.1c2.4,3.9,3.5,8.2,3.5,13.1
		c0,4.8-1.2,9.2-3.5,13.1c-2.4,3.9-5.6,6.9-9.7,9.1c-4.1,2.2-8.8,3.3-13.9,3.3S801.9,51.3,797.7,49.1z M818.4,39.2
		c2-1.2,3.6-2.8,4.8-4.9c1.2-2.1,1.7-4.6,1.7-7.3c0-2.7-0.6-5.2-1.7-7.3c-1.2-2.1-2.8-3.8-4.8-4.9c-2-1.2-4.2-1.7-6.7-1.7
		c-2.5,0-4.7,0.6-6.7,1.7c-2,1.2-3.6,2.8-4.8,4.9c-1.2,2.1-1.7,4.6-1.7,7.3c0,2.8,0.6,5.2,1.7,7.3c1.2,2.1,2.7,3.8,4.8,4.9
		c2,1.2,4.2,1.7,6.7,1.7C814.2,40.9,816.4,40.4,818.4,39.2z"/>
	<path class="st6" d="M861.2,13.2V24h21.6v10.7h-21.6v16.8h-13.8V2.5h38.4v10.7H861.2z"/>
	<path class="st6" d="M797.4,75.3h-15v-11h43.8v11h-15v38h-13.8V75.3z"/>
	<path class="st6" d="M879.2,64.3v48.9h-13.8V94.2h-18.9v19.1h-13.8V64.3h13.8v18.4h18.9V64.3H879.2z"/>
	<path class="st6" d="M929.4,102.5v10.7h-39.3V64.3h38.4V75h-24.7v8.2h21.7v10.3h-21.7v8.9H929.4z"/>
</g>
<polygon class="st7" points="176.8,115 176.8,157.3 22.7,157.3 22.7,24.7 125.7,24.7 125.7,1.9 22.7,1.9 0,1.9 0,24.7 0,157.3 
	0,180 22.7,180 176.8,180 199.5,180 199.5,157.3 199.5,115 "/>
</svg>
